{"title":"No Beast So Fierce 2016.HDRip.XviD","magnet":"magnet:?xt=urn:btih:1720c8e1c1aea15735d61b31b768c9dde3828009&dn=No+Beast+So+Fierce+2016.HDRip.XviD&tr=udp%3A%2F%2Ftracker.leechers-paradise.org%3A6969&tr=udp%3A%2F%2Fzer0day.ch%3A1337&tr=udp%3A%2F%2Fopen.demonii.com%3A1337&tr=udp%3A%2F%2Ftracker.coppersurfer.tk%3A6969&tr=udp%3A%2F%2Fexodus.desync.com%3A6969","uploader":"LifeLongg","categoryP":"video","categoryS":"movies","size":"936414042","seeders":"13","leechers":"10","description":"******************************Screenshots:********************\r\n <a href=\"\nhttp://picserver4u.com/0771.html\" rel=\"nofollow\" target=\"_NEW\">\nhttp://picserver4u.com/0771.html</a>\r\n <a href=\"\nhttp://picserver4u.com/0772.html\" rel=\"nofollow\" target=\"_NEW\">\nhttp://picserver4u.com/0772.html</a>\r\n <a href=\"\nhttp://picserver4u.com/0773.html\" rel=\"nofollow\" target=\"_NEW\">\nhttp://picserver4u.com/0773.html</a>\r\n <a href=\"\nhttp://picserver4u.com/0774.html\" rel=\"nofollow\" target=\"_NEW\">\nhttp://picserver4u.com/0774.html</a>\r\n <a href=\"\nhttp://picserver4u.com/0775.html\" rel=\"nofollow\" target=\"_NEW\">\nhttp://picserver4u.com/0775.html</a>\r\n\r\n****************************************************************\r\n\r\nGeneral\r\nComplete name                            : No Beast So Fierce 2016.HDRip.XviD\r\nFormat                                   : MPEG-4\r\nFormat profile                           : Base Media\r\nCodec ID                                 : isom (isom/iso2/avc1/mp41)\r\nFile size                                : 887 MiB\r\nDuration                                 : 1 h 25 min\r\nOverall bit rate                         : 1 457 kb/s\r\nWriting application                      : Lavf56.40.101\r\n\r\nVideo\r\nID                                       : 1\r\nFormat                                   : AVC\r\nFormat/Info                              : Advanced Video Codec\r\nFormat profile                           : <a href=\"/cdn-cgi/l/email-protection\" class=\"__cf_email__\" data-cfemail=\"eda5848a85ada1de\">[email&#xA0;protected]</a>\r\nFormat settings                          : CABAC / 4 Ref Frames\r\nFormat settings, CABAC                   : Yes\r\nFormat settings, RefFrames               : 4 frames\r\nCodec ID                                 : avc1\r\nCodec ID/Info                            : Advanced Video Coding\r\nDuration                                 : 1 h 25 min\r\nBit rate                                 : 1 200 kb/s\r\nWidth                                    : 720 pixels\r\nHeight                                   : 304 pixels\r\nDisplay aspect ratio                     : 2.35:1\r\nFrame rate mode                          : Constant\r\nFrame rate                               : 23.976 (23976/1000) FPS\r\nColor space                              : YUV\r\nChroma subsampling                       : 4:2:0\r\nBit depth                                : 8 bits\r\nScan type                                : Progressive\r\nBits/(Pixel*Frame)                       : 0.229\r\nStream size                              : 720 MiB (81%)\r\nWriting library                          : x264 core 148 r2643 5c65704\r\n\r\nAudio\r\nID                                       : 2\r\nFormat                                   : AAC\r\nFormat/Info                              : Advanced Audio Codec\r\nFormat profile                           : LC\r\nCodec ID                                 : mp4a-40-2\r\nDuration                                 : 1 h 25 min\r\nDuration_LastFrame                       : -5 ms\r\nBit rate mode                            : Constant\r\nBit rate                                 : 265 kb/s\r\nChannel(s)                               : 2 channels\r\nChannel(s)_Original                      : 6 channels\r\nChannel positions                        : Front: L C R, Side: L R, LFE\r\nSampling rate                            : 48.0 kHz\r\nFrame rate                               : 46.875 FPS (1024 SPF)\r\nCompression mode                         : Lossy\r\nStream size                              : 164 MiB (18%)\r\nDefault                                  : Yes\r\nAlternate group                          : 1","last_updated":"2017-11-19T12:11:25.917Z","parsed":{"xt":"urn:btih:1720c8e1c1aea15735d61b31b768c9dde3828009","dn":"No Beast So Fierce 2016.HDRip.XviD","tr":["udp://exodus.desync.com:6969","udp://open.demonii.com:1337","udp://tracker.coppersurfer.tk:6969","udp://tracker.leechers-paradise.org:6969","udp://zer0day.ch:1337"],"infoHash":"1720c8e1c1aea15735d61b31b768c9dde3828009","infoHashBuffer":{"type":"Buffer","data":[23,32,200,225,193,174,161,87,53,214,27,49,183,104,201,221,227,130,128,9]},"name":"No Beast So Fierce 2016.HDRip.XviD","announce":["udp://exodus.desync.com:6969","udp://open.demonii.com:1337","udp://tracker.coppersurfer.tk:6969","udp://tracker.leechers-paradise.org:6969","udp://zer0day.ch:1337"],"urlList":[]}}